<svg id="Layer_1" data-name="Layer 1" xmlns="http://www.w3.org/2000/svg" viewBox="0 0 311 88"><defs><style>.cls-1{fill:#f7931e;}.cls-2{fill:#f2f2f2;}.cls-3{fill:none;stroke:#f2f2f2;stroke-linecap:round;stroke-miterlimit:10;stroke-width:2px;}</style></defs><title>logo</title><path class="cls-1" d="M18.78,24.7V40.36H28a17.29,17.29,0,0,0,2.93-.21,4.34,4.34,0,0,0,1.74-.6,5.75,5.75,0,0,0,1.16-2.28,16.11,16.11,0,0,0,.57-3.74h3.4V52.78H34.48c-.18-1.36-.35-2.49-.52-3.37a14.31,14.31,0,0,0-.44-1.87v.11a4.16,4.16,0,0,0-1.76-1.31A9.79,9.79,0,0,0,28,45.8H18.78v14c0,1,0,1.81,0,2.34a2,2,0,0,0,.25,1.1,1,1,0,0,0,.81.32c.39,0,1,0,1.74,0h7.94c1.42,0,2.57,0,3.46-.09a11.26,11.26,0,0,0,2.2-.35,5.06,5.06,0,0,0,1.48-.69A14.68,14.68,0,0,0,38,61.35a17,17,0,0,0,2.24-2.78,41.4,41.4,0,0,0,2.39-4.17h3.59l-5,14.7h-38V64.94H6a5.21,5.21,0,0,0,1.31-.18,6.38,6.38,0,0,0,1.35-.48l0,0a2.32,2.32,0,0,0,.83-.64,2.06,2.06,0,0,0,.41-.91A6.44,6.44,0,0,0,10,61.42V28.87A24.22,24.22,0,0,0,9.85,26a3.6,3.6,0,0,0-.56-1.66,2,2,0,0,0-1.2-.75A9.56,9.56,0,0,0,6,23.43H3.27V19.22H41.46V32.41H38.8c-.26-1.23-.48-2.25-.67-3.06a11.53,11.53,0,0,0-.66-2A3.62,3.62,0,0,0,36.55,26a6.73,6.73,0,0,0-1.49-.91h0a15.91,15.91,0,0,0-4.51-.42Z"/><path class="cls-2" d="M79.23,56.49V69.1H48.72V65.82l19.56-26H60.44a25.67,25.67,0,0,0-2.64.1,6.15,6.15,0,0,0-1.44.27,1.55,1.55,0,0,0-.7.4l-.42.54,0,0a14,14,0,0,0-1,5.06H50.84V34.5H79.77v3.32L60,63.86h9a26.14,26.14,0,0,0,2.78-.12,8,8,0,0,0,1.75-.35,2.22,2.22,0,0,0,1-.58A3,3,0,0,0,75,62a6.16,6.16,0,0,0,.52-1.91c.14-.91.29-2.11.44-3.6Z"/><path class="cls-2" d="M81.12,34.5H98.06v4.16H96.28a3.74,3.74,0,0,0-1.52.25c-.35.17-.52.38-.52.64a5.85,5.85,0,0,0,.5,1.91c.33.86.75,1.83,1.25,2.89s1,2.16,1.6,3.28l1.55,3.07c.54,1.13,1,2.14,1.42,3s.88,1.82,1.39,2.8l4.52-11.11c.28-.7.55-1.4.81-2.11a19.61,19.61,0,0,1,.88-2.06v0c.13-.44.25-.84.35-1.22a4.24,4.24,0,0,0,.16-1.1l0,0c0-.07-.28-.14-.68-.19a24.9,24.9,0,0,0-2.49-.08V34.5h12.46v4l-1.62.19a1.61,1.61,0,0,0-.69.16,4.74,4.74,0,0,0-.71.48,2.77,2.77,0,0,0-.49.56,7,7,0,0,0-.5.94c-.18.4-.43.95-.77,1.64-.08.18-.31.75-.69,1.72s-.88,2.18-1.49,3.64-1.28,3.12-2,4.94-1.51,3.69-2.28,5.6-1.52,3.76-2.26,5.57-1.4,3.45-2,4.92-1.1,2.67-1.49,3.62-.6,1.51-.65,1.66a22.17,22.17,0,0,1-2.47,4.5,17.16,17.16,0,0,1-3,3.18,11.69,11.69,0,0,1-3.19,1.89,8.87,8.87,0,0,1-3.16.62A5.74,5.74,0,0,1,86.35,84a5.8,5.8,0,0,1-1.81-1.12,5.51,5.51,0,0,1-1.28-1.67,4.73,4.73,0,0,1-.48-2.13,4.31,4.31,0,0,1,4.63-4.62,7,7,0,0,1,1.5.21,13.66,13.66,0,0,1,1.93.6l.35.11c.26.1.48.19.68.25a1.41,1.41,0,0,0,.36.1,2.13,2.13,0,0,0,1.39-.56,6.14,6.14,0,0,0,1.24-1.52A21.15,21.15,0,0,0,96,71.38c.38-.85.74-1.74,1.1-2.66.18-.49.33-.88.45-1.16s.27-.64.48-1.08c-.23-.46-.64-1.3-1.22-2.51s-1.24-2.6-2-4.17-1.54-3.23-2.38-5-1.63-3.43-2.39-5-1.42-3-2-4.16l-1.2-2.55h0c-.46-.69-.83-1.29-1.1-1.79A5.48,5.48,0,0,0,84.88,40a4.27,4.27,0,0,0-1.35-.88,11.6,11.6,0,0,0-2.41-.68Z"/><path class="cls-1" d="M225.35,34.7a11.85,11.85,0,0,1-1.46,5.73,12.55,12.55,0,0,1-4.13,4.45,12.39,12.39,0,0,1,5.78,4.57,12.73,12.73,0,0,1,1.3,10.88A14.35,14.35,0,0,1,222.11,67,14.09,14.09,0,0,1,218.45,69a22.59,22.59,0,0,1-5.1,1.16,55.87,55.87,0,0,1-7,.39H183.15V66.41h2.78a5.84,5.84,0,0,0,2-.29,2.5,2.5,0,0,0,1.22-.94,4.29,4.29,0,0,0,.61-1.72,16.22,16.22,0,0,0,.18-2.64V30.49a16.6,16.6,0,0,0-.2-2.85,3.85,3.85,0,0,0-.65-1.7,2.24,2.24,0,0,0-1.24-.83,7.39,7.39,0,0,0-1.92-.21h-2.78V20.7h21.29q2.9,0,5.13.21a31.24,31.24,0,0,1,3.67.52,19.5,19.5,0,0,1,9,5.07A11.67,11.67,0,0,1,225.35,34.7ZM198.69,42a38.23,38.23,0,0,0,5.48.35,21.14,21.14,0,0,0,6-.7,9.47,9.47,0,0,0,3.57-1.81,5.65,5.65,0,0,0,1.72-2.53,9.66,9.66,0,0,0,.44-2.87,7.49,7.49,0,0,0-2.84-5.85,11.21,11.21,0,0,0-3.74-1.9,18,18,0,0,0-5.46-.74c-.82,0-1.69,0-2.6.14a23,23,0,0,0-2.61.4Zm0,22.45a32.71,32.71,0,0,0,6.87.77,18.08,18.08,0,0,0,5.15-.69,11.65,11.65,0,0,0,3.76-1.77,12.3,12.3,0,0,0,2-2.8,6.48,6.48,0,0,0,.83-3,8.67,8.67,0,0,0-.62-3,8,8,0,0,0-2.14-3,12.08,12.08,0,0,0-4.15-2.33,20.11,20.11,0,0,0-6.63-.93c-1.08,0-2,0-2.9,0s-1.58.08-2.2.16Z"/><path class="cls-2" d="M263.93,36V56.65c0,1.18,0,2.19,0,3s0,1.54.08,2.1a7,7,0,0,0,.19,1.37,2,2,0,0,0,.4.83l-.07,0a1.22,1.22,0,0,0,.73.19,4.22,4.22,0,0,0,1.25-.23,17.55,17.55,0,0,0,1.76-.65l1.35,3.85-10.76,4.44H256.1V66.29c-1.24,1.19-2.28,2.13-3.15,2.82a14,14,0,0,1-2.35,1.58,7.17,7.17,0,0,1-2,.7,14.64,14.64,0,0,1-2.18.15,8.3,8.3,0,0,1-2.84-.48,8,8,0,0,1-2.39-1.35,9.53,9.53,0,0,1-1.87-2.07A9.94,9.94,0,0,1,238,65v0a14.76,14.76,0,0,1-.6-3.18c-.12-1.22-.18-2.61-.18-4.15V43.53c0-.61,0-1.13,0-1.56a1.65,1.65,0,0,0-.47-1,2.58,2.58,0,0,0-1.31-.6,13.19,13.19,0,0,0-2.6-.19h-.93V36H245.1V58.66a12.71,12.71,0,0,0,.29,3,4.06,4.06,0,0,0,.85,1.73,2.8,2.8,0,0,0,1.33.81,6,6,0,0,0,4.65-.63,17.7,17.7,0,0,0,3.88-2.94V43.38a5.89,5.89,0,0,0-.19-1.62,2.44,2.44,0,0,0-.54-1h0a2.85,2.85,0,0,0-1.37-.44,21.78,21.78,0,0,0-3-.21V36Z"/><path class="cls-2" d="M269.68,36h16.93v4.17h-1.77a3.62,3.62,0,0,0-1.53.25c-.34.17-.52.38-.52.64a6,6,0,0,0,.51,1.91c.33.86.75,1.82,1.25,2.89s1,2.16,1.6,3.28,1.08,2.14,1.54,3.06c.54,1.14,1,2.15,1.43,3S290,57,290.51,58L295,46.89c.29-.69.56-1.4.81-2.1a21.14,21.14,0,0,1,.89-2.07v0c.13-.44.24-.84.35-1.21a4.28,4.28,0,0,0,.15-1.1l0,0c-.05-.08-.27-.14-.67-.19a22.06,22.06,0,0,0-2.49-.08V36h12.46V40l-1.62.2a1.89,1.89,0,0,0-.69.15,5.55,5.55,0,0,0-.72.48,2.46,2.46,0,0,0-.48.56,7.21,7.21,0,0,0-.5,1c-.18.4-.44.94-.77,1.64-.08.18-.31.75-.7,1.71s-.88,2.18-1.48,3.65-1.28,3.11-2,4.94l-2.27,5.59Q294,62.74,293,65.46t-2,4.92c-.6,1.47-1.1,2.68-1.48,3.63s-.61,1.5-.66,1.66a21.87,21.87,0,0,1-2.47,4.49,16.6,16.6,0,0,1-2.95,3.19,12,12,0,0,1-3.18,1.89,8.89,8.89,0,0,1-3.16.61,5.82,5.82,0,0,1-2.15-.4,6.11,6.11,0,0,1-1.81-1.12,5.65,5.65,0,0,1-1.27-1.68,4.68,4.68,0,0,1-.48-2.12A4.31,4.31,0,0,1,276,75.9a7.16,7.16,0,0,1,1.5.21,13.66,13.66,0,0,1,1.93.6l.35.12.67.25a1.75,1.75,0,0,0,.37.09,2.08,2.08,0,0,0,1.39-.56,6.12,6.12,0,0,0,1.23-1.52,18.59,18.59,0,0,0,1.14-2.24c.37-.85.74-1.73,1.1-2.66.18-.49.33-.87.44-1.16s.28-.64.48-1.08c-.23-.46-.63-1.3-1.21-2.5l-2-4.17q-1.11-2.36-2.37-5c-.84-1.76-1.63-3.42-2.39-5s-1.42-3-2-4.17-1-2.06-1.19-2.54h0c-.46-.7-.83-1.3-1.1-1.8a5.39,5.39,0,0,0-.92-1.27,4.53,4.53,0,0,0-1.35-.89,11.89,11.89,0,0,0-2.41-.67Z"/><path class="cls-2" d="M161.36,33.25c0,1.67,0,3.2,0,4.73a2.51,2.51,0,1,1-5,0c0-1.51,0-3,0-4.53a.53.53,0,0,0-.07-.18h-14.9v2c0,1,0,2,0,3a2.5,2.5,0,1,1-5,0c0-1.62,0-3.23,0-4.88a3.81,3.81,0,0,0-.54-.07c-1.62,0-3.23,0-4.84,0a2.43,2.43,0,0,0-2.61,2.26c-.48,4.08-.92,8.16-1.38,12.24q-.9,8.1-1.81,16.2c-.22,2-.48,4.08-.67,6.12s.81,3.13,2.89,3.13h28.72a2.5,2.5,0,0,1,2.56,3.33,2.44,2.44,0,0,1-2.09,1.65,3.37,3.37,0,0,1-.55,0H127.19a7.37,7.37,0,0,1-7.57-6.28,15.15,15.15,0,0,1,.11-3.8Q121,56.26,122.36,44.4c.35-3.2.7-6.41,1.08-9.61a7.47,7.47,0,0,1,7.23-6.52c1.87,0,3.74,0,5.72,0,0-.86,0-1.69,0-2.51a12.49,12.49,0,0,1,25-.23c0,.88,0,1.76,0,2.74,1.79,0,3.53-.08,5.26,0a10.06,10.06,0,0,1,3.32.66,7,7,0,0,1,4.36,5.85c.72,6,1.36,12,2,18a2.51,2.51,0,1,1-5,.48q-.93-8.59-1.9-17.2c-.24-2.08-1.08-2.8-3.18-2.8Zm-19.93-5h14.93c0-.89,0-1.74,0-2.6a7.48,7.48,0,0,0-13-4.9C141.35,22.86,141.23,25.47,141.43,28.22Z"/><path class="cls-1" d="M166.36,70.71c-1.71,0-3.34,0-5,0a2.42,2.42,0,0,1-2.26-1.4,2.34,2.34,0,0,1,.23-2.57,2.45,2.45,0,0,1,2.09-1h4.91c0-1.72,0-3.37,0-5a2.47,2.47,0,0,1,3.47-2.26,2.43,2.43,0,0,1,1.51,2.35c0,1.58,0,3.17,0,4.75a1,1,0,0,0,.07.18h4.29a5.61,5.61,0,0,1,1.09,0,2.49,2.49,0,0,1-.44,4.93c-1.63,0-3.27,0-5,0v1.55c0,1.17,0,2.34,0,3.51a2.49,2.49,0,0,1-5,0C166.34,74.1,166.36,72.44,166.36,70.71Z"/><path class="cls-3" d="M133.46,55.2s1.47,13.27,25.07,7.37"/><path class="cls-1" d="M247.88,6.13c0,.45-.73,1.53-2.19,3.26h-.3c-.23-.09-.37-.42-.43-1a4.84,4.84,0,0,0-1.2-2.86,3.2,3.2,0,0,0-2.44-1.11,3.13,3.13,0,0,0-2.31,1,3.18,3.18,0,0,0-1,2.32,4.43,4.43,0,0,0,.62,2.11,19,19,0,0,0,3.18,3.58,16.35,16.35,0,0,1,3.29,3.89,6.13,6.13,0,0,1,.73,2.76,6.88,6.88,0,0,1-2.62,5.31,9,9,0,0,1-6.13,2.3,8,8,0,0,1-4.78-1.35c-1.26-.9-1.88-1.63-1.88-2.19a6.62,6.62,0,0,1,1-2.21,7.06,7.06,0,0,1,1.19-1.73.89.89,0,0,1,.77.32,2.47,2.47,0,0,1,.31,1.16A5.87,5.87,0,0,0,235,25.31a3.67,3.67,0,0,0,2.67,1,4.45,4.45,0,0,0,3.14-1.24,3.84,3.84,0,0,0,1.34-2.89,3.74,3.74,0,0,0-.52-1.8,17.55,17.55,0,0,0-2.93-3.26,14.36,14.36,0,0,1-3.16-3.9,7.23,7.23,0,0,1-.75-3.1,7,7,0,0,1,2-4.83,6.75,6.75,0,0,1,5.27-2.21,7.1,7.1,0,0,1,4.15,1.15C247.33,5,247.88,5.63,247.88,6.13Z"/><path class="cls-1" d="M261,23.5a21.19,21.19,0,0,1-3.87,3.13,7.33,7.33,0,0,1-3.78,1,4.89,4.89,0,0,1-3.72-1.48,5.39,5.39,0,0,1-1.42-3.88,9.72,9.72,0,0,1,2.5-6.51,7.23,7.23,0,0,1,5.52-2.9,3.75,3.75,0,0,1,2.53.81,2.69,2.69,0,0,1,.95,2.14q0,3.51-7.46,5.69.68,3.31,3.54,3.31a4.15,4.15,0,0,0,2.14-.6A18.42,18.42,0,0,0,261,21.55Zm-8.89-3.14c2.9-.81,4.34-2.32,4.34-4.51,0-1.08-.39-1.63-1.18-1.63s-1.46.57-2.14,1.71A8.52,8.52,0,0,0,252.15,20.36Z"/><path class="cls-1" d="M272.3,23.5a24.91,24.91,0,0,1-4,3.13,6.68,6.68,0,0,1-3.32,1A3.53,3.53,0,0,1,262,26.23a5.89,5.89,0,0,1-1.12-3.78,29.65,29.65,0,0,1,1.55-8.55,55.3,55.3,0,0,1,3.74-9.19l4.31-1.59a1,1,0,0,1,.31-.07c.33,0,.59.24.8.72a4.93,4.93,0,0,1,.32,1.94,14.91,14.91,0,0,1-1.6,6.7,30.28,30.28,0,0,1-5,6.92c-.09,1.17-.14,2-.14,2.42a4.36,4.36,0,0,0,.54,2.34,1.66,1.66,0,0,0,1.45.87,3.66,3.66,0,0,0,1.95-.66,24.48,24.48,0,0,0,3.15-2.75Zm-6.49-6.63a20.84,20.84,0,0,0,3.49-5.37,12.88,12.88,0,0,0,1.34-5.11,2.22,2.22,0,0,0-.19-1c-.12-.25-.28-.38-.47-.38q-.63,0-1.83,3.12A58.77,58.77,0,0,0,265.81,16.87Z"/><path class="cls-1" d="M283.56,23.5a24.48,24.48,0,0,1-4,3.13,6.68,6.68,0,0,1-3.32,1,3.53,3.53,0,0,1-2.92-1.41,5.94,5.94,0,0,1-1.11-3.78,29.59,29.59,0,0,1,1.54-8.55,54.47,54.47,0,0,1,3.75-9.19l4.3-1.59a1,1,0,0,1,.31-.07c.33,0,.6.24.8.72a4.93,4.93,0,0,1,.32,1.94,14.91,14.91,0,0,1-1.6,6.7,30.28,30.28,0,0,1-5,6.92c-.09,1.17-.14,2-.14,2.42a4.27,4.27,0,0,0,.55,2.34,1.63,1.63,0,0,0,1.44.87,3.66,3.66,0,0,0,2-.66,23.81,23.81,0,0,0,3.15-2.75Zm-6.49-6.63a20.84,20.84,0,0,0,3.49-5.37,12.88,12.88,0,0,0,1.34-5.11,2.22,2.22,0,0,0-.19-1c-.12-.25-.28-.38-.47-.38-.42,0-1,1-1.82,3.12A57.39,57.39,0,0,0,277.07,16.87Z"/><path class="cls-1" d="M296.28,23.5a20.86,20.86,0,0,1-3.87,3.13,7.33,7.33,0,0,1-3.78,1,4.89,4.89,0,0,1-3.72-1.48,5.39,5.39,0,0,1-1.42-3.88,9.72,9.72,0,0,1,2.5-6.51,7.23,7.23,0,0,1,5.53-2.9,3.74,3.74,0,0,1,2.52.81,2.69,2.69,0,0,1,.95,2.14q0,3.51-7.46,5.69.68,3.31,3.54,3.31a4.15,4.15,0,0,0,2.14-.6,18.42,18.42,0,0,0,3.07-2.67Zm-8.89-3.14c2.9-.81,4.35-2.32,4.35-4.51,0-1.08-.4-1.63-1.19-1.63s-1.46.57-2.14,1.71A8.52,8.52,0,0,0,287.39,20.36Z"/><path class="cls-1" d="M309,23.5q-4.26,4.17-6.56,4.17a2.19,2.19,0,0,1-1.75-.87,3.36,3.36,0,0,1-.71-2.16q0-2.4,2.56-6.41a9.75,9.75,0,0,1-2.75.89,19.35,19.35,0,0,1-3.46,4.38h-.39V22A21.86,21.86,0,0,0,298.33,19a2.07,2.07,0,0,1-1.46-1.91,5.51,5.51,0,0,1,.89-2.79,2.75,2.75,0,0,1,2.46-1.49,1.18,1.18,0,0,1,1.32,1.36,9.35,9.35,0,0,1-.77,3q2.82-.3,4.92-4.31l1.55-.06-1.58,4.34C305,19,304.58,20.29,304.39,21a6.07,6.07,0,0,0-.29,1.75,1.8,1.8,0,0,0,.33,1.14,1.08,1.08,0,0,0,.89.42,2,2,0,0,0,1.17-.41c.37-.28,1.21-1.05,2.51-2.3Z"/></svg>